<svg width="433" height="450" viewBox="0 0 433 450" fill="none" xmlns="http://www.w3.org/2000/svg">
<g clip-path="url(#clip0_7191_198336)">
<path d="M431.44 409.94C432.63 410.62 432.66 411.7 431.44 412.39L397.59 432.06C396.936 432.393 396.213 432.566 395.48 432.566C394.747 432.566 394.024 432.393 393.37 432.06L359.31 412.4C359.056 412.313 358.835 412.148 358.679 411.929C358.523 411.711 358.439 411.449 358.439 411.18C358.439 410.911 358.523 410.649 358.679 410.431C358.835 410.212 359.056 410.047 359.31 409.96L393.16 390.29C393.809 389.955 394.529 389.78 395.26 389.78C395.991 389.78 396.711 389.955 397.36 390.29L431.44 409.94Z" fill="#F1F1F1"/>
<path d="M427 407.54V410.13C426.974 410.348 426.891 410.555 426.759 410.73C426.627 410.906 426.452 411.044 426.25 411.13V408.54C426.45 408.451 426.623 408.312 426.754 408.137C426.885 407.962 426.97 407.757 427 407.54Z" fill="#AD000F"/>
<path d="M363.6 410.11V407.52C363.617 407.747 363.695 407.965 363.828 408.15C363.96 408.335 364.141 408.481 364.35 408.57V411.16C364.143 411.068 363.964 410.922 363.832 410.737C363.7 410.553 363.62 410.336 363.6 410.11Z" fill="#AD000F"/>
<path d="M393.6 425.45L393.59 428.05L364.36 411.17V408.57L393.6 425.45Z" fill="#AD000F"/>
<path d="M426.29 408.57V411.16L397.22 428.06L397.23 425.46L426.29 408.57Z" fill="#AD000F"/>
<path d="M397.23 425.46V428.06C396.668 428.346 396.046 428.496 395.415 428.496C394.784 428.496 394.162 428.346 393.6 428.06V425.47C394.163 425.755 394.785 425.902 395.416 425.901C396.047 425.899 396.669 425.748 397.23 425.46Z" fill="#AD000F"/>
<path d="M426.26 406.47C427.26 407.06 427.26 407.98 426.26 408.57L397.2 425.46C396.638 425.746 396.016 425.896 395.385 425.896C394.754 425.896 394.132 425.746 393.57 425.46L364.33 408.58C363.33 407.99 363.33 407.07 364.33 406.49L393.4 389.6C393.955 389.309 394.573 389.157 395.2 389.157C395.827 389.157 396.445 389.309 397 389.6L426.26 406.47Z" fill="#DC3F46"/>
<path d="M415 403.76L405.68 365.83L400.2 347.65C399.884 346.595 399.236 345.669 398.353 345.011C397.469 344.353 396.397 343.998 395.295 343.998C394.193 343.998 393.121 344.353 392.237 345.011C391.354 345.669 390.706 346.595 390.39 347.65L384.92 365.77L375.62 403.56C374.53 407.15 376.38 410.99 381.2 413.77C389.03 418.29 401.68 418.31 409.46 413.82C414.23 411.09 416.05 407.32 415 403.76Z" fill="#C40010"/>
<path d="M415 403.76L414.45 401.51C413.285 403.574 411.549 405.258 409.45 406.36C401.67 410.85 389.02 410.82 381.19 406.3C379.069 405.184 377.315 403.479 376.14 401.39L375.6 403.56C374.51 407.15 376.36 410.99 381.18 413.77C389.01 418.29 401.66 418.31 409.44 413.82C414.18 411.09 416 407.32 414.95 403.76H415Z" fill="#F1F1F1"/>
<path d="M408.36 376.62C408.31 378.52 407.04 380.37 404.58 381.81C399.49 384.76 391.22 384.73 386.13 381.81C383.62 380.38 382.32 378.48 382.28 376.57L383.42 371.92C383.378 372.359 383.412 372.802 383.52 373.23C383.617 373.633 383.772 374.021 383.98 374.38C384.678 375.567 385.692 376.537 386.91 377.18C391.59 379.86 399.14 379.89 403.78 377.18C404.565 376.735 405.28 376.176 405.9 375.52C406.477 374.887 406.895 374.126 407.12 373.3C407.238 372.846 407.262 372.373 407.19 371.91L408.36 376.62Z" fill="#F1F1F1"/>
<path d="M412.28 392.61C411.97 394.85 410.33 397.02 407.39 398.73C400.75 402.55 389.98 402.53 383.33 398.68C380.33 396.95 378.67 394.75 378.33 392.49L379.77 386.66C379.793 386.947 379.843 387.232 379.92 387.51C380.115 388.354 380.49 389.145 381.02 389.83C381.915 390.985 383.043 391.939 384.33 392.63C390.42 396.14 400.27 396.17 406.33 392.68C407.783 391.893 409.022 390.764 409.94 389.39C410.289 388.846 410.537 388.243 410.67 387.61C410.738 387.33 410.788 387.046 410.82 386.76L412.28 392.61Z" fill="#F1F1F1"/>
<path d="M387.17 358.39C387.17 358.39 391.17 362.63 394.52 362.72C397.66 362.81 403.37 358.06 403.37 358.06L404.51 361.97C404.51 361.97 398.72 367.05 394.56 366.86C389.39 366.63 385.93 362.49 385.93 362.49L387.17 358.39Z" fill="#F1F1F1"/>
<path d="M291.05 167.19C291.299 166.857 291.65 166.614 292.05 166.5C292.611 166.333 293.213 166.378 293.743 166.627C294.272 166.876 294.691 167.312 294.92 167.85C295.03 168.1 297.59 174.13 295.8 179.19C295.703 179.453 295.552 179.692 295.356 179.893C295.16 180.093 294.925 180.25 294.665 180.354C294.405 180.458 294.125 180.506 293.846 180.495C293.566 180.484 293.291 180.414 293.04 180.29C292.501 180.084 292.059 179.683 291.803 179.165C291.547 178.648 291.496 178.053 291.66 177.5C292.91 173.97 290.94 169.22 290.92 169.18C290.766 168.866 290.696 168.517 290.719 168.168C290.742 167.818 290.856 167.481 291.05 167.19Z" fill="#263238"/>
<path d="M272.54 406.82C329.182 406.82 375.1 396.012 375.1 382.68C375.1 369.348 329.182 358.54 272.54 358.54C215.898 358.54 169.98 369.348 169.98 382.68C169.98 396.012 215.898 406.82 272.54 406.82Z" fill="#F1F1F1"/>
<path d="M228.65 385.93C227.924 385.222 227.406 384.328 227.154 383.346C226.902 382.363 226.925 381.33 227.22 380.36C230.37 370.07 233.76 357.7 234.22 341.18C234.249 340.231 234.522 339.306 235.013 338.494C235.503 337.681 236.194 337.008 237.02 336.54C250.02 329.13 268.52 319.54 268.71 319.54C269.354 319.207 270.058 319.004 270.78 318.943C271.503 318.882 272.23 318.964 272.921 319.184C273.612 319.404 274.252 319.758 274.807 320.226C275.361 320.694 275.817 321.266 276.15 321.91C276.483 322.554 276.686 323.258 276.747 323.98C276.808 324.703 276.726 325.43 276.506 326.121C276.286 326.812 275.932 327.452 275.464 328.007C274.996 328.561 274.424 329.017 273.78 329.35C273.61 329.44 257.72 337.66 245.14 344.69C244.34 360.23 241.14 372.57 237.76 383.63C237.331 385.031 236.363 386.205 235.069 386.893C233.776 387.581 232.262 387.727 230.86 387.3C230.023 387.03 229.264 386.56 228.65 385.93Z" fill="#E8505B"/>
<path d="M278.859 328.609C285.36 320.457 285.156 309.482 278.402 304.097C271.649 298.712 260.904 300.955 254.403 309.107C247.902 317.26 248.107 328.234 254.86 333.62C261.614 339.005 272.358 336.762 278.859 328.609Z" fill="#263238"/>
<path d="M231.62 388.84L213.57 371.19C212.998 370.635 212.627 369.905 212.514 369.116C212.401 368.327 212.554 367.523 212.947 366.83C213.341 366.137 213.953 365.594 214.688 365.286C215.424 364.979 216.24 364.924 217.01 365.13L228.01 368.04C228.659 368.207 229.249 368.554 229.71 369.04L240 379.84C240.603 380.476 240.953 381.31 240.987 382.186C241.02 383.062 240.733 383.92 240.18 384.6L236.97 388.54C236.654 388.935 236.258 389.258 235.809 389.49C235.36 389.721 234.867 389.855 234.362 389.884C233.857 389.912 233.352 389.834 232.88 389.654C232.407 389.474 231.978 389.197 231.62 388.84Z" fill="#263238"/>
<path d="M193.3 273.58C192.465 273.194 191.789 272.533 191.385 271.707C190.981 270.881 190.874 269.941 191.081 269.045C191.289 268.149 191.799 267.353 192.526 266.789C193.252 266.225 194.151 265.929 195.07 265.95C195.818 265.956 196.556 265.777 197.217 265.428C197.879 265.079 198.443 264.571 198.86 263.95C199.292 263.193 199.959 262.597 200.761 262.254C201.562 261.911 202.454 261.84 203.3 262.05C204.29 262.279 205.291 262.456 206.3 262.58C211.89 263.36 218.8 264.33 235.61 278.39C259.38 276.33 268.61 256.53 268.96 255.67C269.397 254.709 270.196 253.959 271.183 253.584C272.17 253.209 273.265 253.24 274.23 253.67C275.186 254.107 275.933 254.902 276.307 255.885C276.681 256.867 276.654 257.958 276.23 258.92C275.77 259.98 264.38 284.92 234.47 286.48C233.451 286.535 232.449 286.199 231.67 285.54C215.72 271.97 209.87 271.15 205.18 270.54L203.91 270.35C202.723 271.542 201.303 272.477 199.74 273.098C198.176 273.719 196.502 274.012 194.82 273.96C194.293 273.938 193.776 273.808 193.3 273.58Z" fill="#263238"/>
<path fill-rule="evenodd" clip-rule="evenodd" d="M308.75 122.5L200.25 212.73C198.437 214.23 197.037 216.169 196.184 218.363C195.331 220.556 195.052 222.931 195.375 225.262C195.697 227.594 196.61 229.804 198.027 231.683C199.444 233.562 201.318 235.048 203.47 236L308.32 282.6C310.395 283.523 312.666 283.921 314.931 283.757C317.196 283.593 319.386 282.873 321.307 281.66C323.227 280.448 324.819 278.781 325.941 276.806C327.063 274.831 327.681 272.61 327.74 270.34L331.39 133.49C331.462 130.835 330.767 128.215 329.389 125.945C328.01 123.675 326.005 121.85 323.616 120.69C321.226 119.53 318.553 119.084 315.916 119.405C313.28 119.726 310.791 120.801 308.75 122.5Z" fill="#E8505B"/>
<path fill-rule="evenodd" clip-rule="evenodd" d="M266.06 374L342.91 310.08C344.042 309.142 344.93 307.943 345.498 306.587C346.067 305.231 346.298 303.758 346.174 302.293C346.049 300.828 345.571 299.415 344.782 298.175C343.992 296.934 342.914 295.903 341.64 295.17L281.77 260.64C280.496 259.907 279.065 259.493 277.597 259.432C276.129 259.37 274.668 259.665 273.338 260.289C272.007 260.913 270.848 261.849 269.957 263.018C269.066 264.186 268.47 265.552 268.22 267L251.22 365.45C250.901 367.291 251.155 369.185 251.948 370.877C252.741 372.569 254.034 373.976 255.653 374.909C257.272 375.842 259.138 376.255 261 376.092C262.861 375.93 264.627 375.199 266.06 374Z" fill="#E8505B"/>
<path opacity="0.1" fill-rule="evenodd" clip-rule="evenodd" d="M331.46 131.85C330.18 122.06 320.12 116.69 315.83 122.55C312.83 126.7 309.26 138.29 308.06 143.29C306.83 148.47 304.31 154.53 303.21 174.64C302.14 194.22 301.1 223.1 298.65 265.2C297.3 288.34 294.78 322.72 265.59 352.5L254.75 365.13C254.001 366.043 253.506 367.137 253.316 368.302C253.126 369.467 253.247 370.662 253.667 371.766C254.088 372.869 254.792 373.842 255.709 374.585C256.626 375.329 257.724 375.817 258.89 376C260.154 376.195 261.444 376.124 262.679 375.791C263.913 375.459 265.065 374.873 266.06 374.07L341.31 311.55C346.2 308.32 349.5 300.85 341.64 295.24L331.35 289.47C314.11 279.62 311.23 278.77 327.89 271.28L331.46 131.85Z" fill="black"/>
<path d="M311.83 205.92C310.1 214.86 303.09 222.04 289.23 217.57C287.081 216.873 285.095 215.751 283.389 214.27C281.683 212.789 280.293 210.98 279.302 208.95C278.311 206.92 277.739 204.711 277.62 202.455C277.501 200.2 277.838 197.943 278.61 195.82C281.87 187.31 290.88 183.46 300.46 185.43C309 187.19 313.58 197 311.83 205.92Z" fill="white"/>
<path d="M295.028 203.008C296.866 198.289 296.253 193.644 293.659 192.634C291.066 191.624 287.473 194.63 285.635 199.35C283.797 204.069 284.41 208.713 287.003 209.723C289.597 210.734 293.19 207.727 295.028 203.008Z" fill="#263238"/>
<path fill-rule="evenodd" clip-rule="evenodd" d="M291.92 198.7L287.21 200.12L289.26 202.84L291.92 198.7Z" fill="#E8505B"/>
<path fill-rule="evenodd" clip-rule="evenodd" d="M285.57 205.62L290.28 204.2L288.23 201.49L285.57 205.62Z" fill="#E8505B"/>
<path d="M274.94 195.33C288.75 200.51 310.18 203.16 314.74 202.45C315.88 193.32 309.42 180.89 296.39 179.67C280.37 178.18 274.94 195.33 274.94 195.33Z" fill="#263238"/>
<path d="M312.687 271.161C311.935 271.43 311.281 271.917 310.809 272.561C310.337 273.204 310.068 273.974 310.037 274.771C309.737 277.461 311.307 280.241 313.537 280.981C314.427 281.271 334.537 288.271 347.227 315.161C337.787 324.331 321.607 343.571 319.157 351.631C318.922 352.45 318.864 353.309 318.987 354.151C319.639 358.335 321.103 362.35 323.297 365.971L322.707 371.571C322.417 374.271 324.007 377.041 326.247 377.761C328.487 378.481 330.537 376.871 330.817 374.171L331.667 366.121C331.754 365.253 331.663 364.376 331.4 363.544C331.137 362.711 330.707 361.942 330.137 361.281C328.752 359.437 327.792 357.31 327.327 355.051C330.627 347.911 346.687 328.641 355.117 321.211C356.597 319.911 356.977 317.361 356.037 315.131C341.417 280.281 315.717 271.521 314.627 271.131C313.991 270.947 313.316 270.958 312.687 271.161Z" fill="#263238"/>
<path d="M274.51 201.34C288.62 205.19 307.42 209.26 313.51 208.97C310.13 218.48 304.1 226.18 290.67 222.97C271.4 218.34 274.51 201.34 274.51 201.34Z" fill="#263238"/>
<path d="M267.43 195.69C265.61 203.1 260.28 207.59 253.77 204.59C247.26 201.59 243.28 193.05 244.88 185.54C246.48 178.03 253.05 174.36 259.56 177.37C266.07 180.38 269.39 187.7 267.43 195.69Z" fill="white"/>
<path d="M256.74 191.71C255.93 196.02 253.82 199.03 252.04 198.42C250.26 197.81 249.46 193.82 250.27 189.5C251.08 185.18 253.18 182.18 254.97 182.79C256.76 183.4 257.55 187.39 256.74 191.71Z" fill="#263238"/>
<path fill-rule="evenodd" clip-rule="evenodd" d="M255.24 187.9L251.77 189.69L253.77 191.51L255.24 187.9Z" fill="#E8505B"/>
<path fill-rule="evenodd" clip-rule="evenodd" d="M251.3 194.22L254.76 192.42L252.77 190.61L251.3 194.22Z" fill="#E8505B"/>
<path d="M242.92 185.76C250.5 188.83 266.92 192.18 269.92 191.47C269.38 182.64 264.06 175.02 255.56 174.47C245.78 173.82 242.92 185.76 242.92 185.76Z" fill="#263238"/>
<path d="M242.41 190.25C251.3 194.25 265.57 198.07 269.41 197.02C267.04 204.35 260.73 211.12 253.23 208.02C242.28 203.58 242.41 190.25 242.41 190.25Z" fill="#263238"/>
<path fill-rule="evenodd" clip-rule="evenodd" d="M323 162.7L305.14 164.3C299.314 164.82 293.443 164.139 287.89 162.3L283.53 160.87L286.53 170.16C286.685 170.65 286.934 171.104 287.265 171.497C287.596 171.89 288.001 172.214 288.457 172.45C288.914 172.686 289.412 172.83 289.924 172.873C290.436 172.916 290.951 172.857 291.44 172.7L323 162.7Z" fill="#263238"/>
<path d="M214.51 267.8C214.838 268.012 215.22 268.123 215.61 268.12C216.16 268.116 216.688 267.91 217.096 267.541C217.503 267.172 217.761 266.666 217.82 266.12C217.82 265.87 218.28 259.89 215.02 256.02C214.653 255.622 214.146 255.384 213.606 255.356C213.065 255.328 212.536 255.513 212.13 255.87C211.918 256.028 211.739 256.228 211.605 256.456C211.47 256.684 211.382 256.936 211.346 257.198C211.309 257.461 211.325 257.728 211.393 257.984C211.461 258.24 211.579 258.48 211.74 258.69C214.02 261.4 213.74 266.09 213.74 266.13C213.712 266.451 213.768 266.775 213.903 267.067C214.038 267.36 214.247 267.613 214.51 267.8Z" fill="#263238"/>
<path fill-rule="evenodd" clip-rule="evenodd" d="M274.06 184.4L269.92 174.28C269.067 172.05 267.668 170.07 265.851 168.522C264.034 166.974 261.857 165.907 259.52 165.42L265.72 161.58C267.72 160.34 269.63 160.86 269.98 162.74L274.06 184.4Z" fill="#263238"/>
<path d="M320.265 332.319C330.375 329.158 336.447 319.801 333.827 311.42C331.207 303.039 320.887 298.807 310.776 301.967C300.666 305.128 294.594 314.484 297.214 322.866C299.834 331.247 310.154 335.479 320.265 332.319Z" fill="#263238"/>
<path d="M327.49 394.05C326.442 394.052 325.415 393.764 324.52 393.219C323.625 392.674 322.899 391.892 322.42 390.96C317.31 381.09 310.89 369.51 299.33 356.96C298.666 356.24 298.198 355.362 297.972 354.409C297.746 353.456 297.77 352.461 298.04 351.52C302.33 336.62 309.04 316.26 309.14 316.06C309.615 314.62 310.642 313.427 311.996 312.745C313.35 312.062 314.92 311.945 316.36 312.42C317.8 312.895 318.993 313.922 319.675 315.276C320.358 316.63 320.475 318.2 320 319.64C319.94 319.83 314.14 337.37 309.92 351.64C320.55 363.69 327.1 375.12 332.58 385.72C333.029 386.589 333.247 387.56 333.213 388.537C333.179 389.515 332.895 390.468 332.387 391.304C331.879 392.141 331.164 392.832 330.312 393.313C329.46 393.794 328.498 394.048 327.52 394.05H327.49Z" fill="#E8505B"/>
<path d="M331.78 394.05H305.72C304.883 394.07 304.065 393.806 303.396 393.303C302.727 392.8 302.248 392.086 302.035 391.277C301.823 390.467 301.889 389.61 302.224 388.843C302.558 388.076 303.142 387.444 303.88 387.05L314.14 381.23C314.748 380.883 315.441 380.717 316.14 380.75L331.47 381.34C332.373 381.375 333.232 381.738 333.887 382.359C334.542 382.981 334.948 383.82 335.03 384.72L335.51 389.95C335.563 390.47 335.507 390.996 335.343 391.493C335.18 391.99 334.913 392.447 334.561 392.833C334.209 393.22 333.78 393.529 333.3 393.738C332.821 393.948 332.303 394.054 331.78 394.05Z" fill="#263238"/>
<path d="M227 224.82L237 224.02C238.156 223.927 239.314 224.184 240.322 224.758C241.33 225.333 242.141 226.198 242.65 227.24L244.91 231.88C245.508 233.085 246.507 234.044 247.735 234.591C248.963 235.139 250.344 235.241 251.64 234.88L255.54 233.81C256.695 233.488 257.922 233.534 259.05 233.943C260.178 234.352 261.149 235.102 261.83 236.09L264.54 240.03C265.159 240.927 266.019 241.63 267.02 242.058C268.022 242.486 269.124 242.622 270.2 242.45L277.69 241.27" stroke="#263238" stroke-width="4" stroke-miterlimit="10" stroke-linecap="round"/>
<path d="M199.35 236.17C199.335 235.994 199.335 235.816 199.35 235.64L200.54 225.81L205.72 228.81L204.52 238.64C204.52 238.82 204.52 239 204.52 239.17C204.491 239.563 204.568 239.956 204.744 240.308C204.92 240.66 205.188 240.958 205.52 241.17L200.35 238.17C200.017 237.96 199.747 237.662 199.571 237.309C199.395 236.957 199.318 236.563 199.35 236.17Z" fill="#7F7F7F"/>
<path d="M211.11 241.78C213.172 238.518 214.328 234.766 214.46 230.91C214.46 225.37 211.77 222.51 211.63 222.36L216.8 225.36C216.94 225.51 219.65 228.36 219.63 233.9C219.497 237.758 218.344 241.512 216.29 244.78C215.244 246.507 214.659 248.473 214.59 250.49L209.42 247.49C209.49 245.474 210.072 243.509 211.11 241.78Z" fill="#7F7F7F"/>
<path d="M209.14 308.37L214.31 311.37L214.59 250.49L209.42 247.49L209.14 308.37Z" fill="#7F7F7F"/>
<path d="M198.91 331.21C198.964 330.026 199.345 328.881 200.01 327.9C201.396 325.641 203.26 323.713 205.47 322.25C205.797 321.993 206.187 321.83 206.599 321.777C207.011 321.724 207.429 321.784 207.81 321.95L212.99 324.95C212.608 324.781 212.187 324.72 211.773 324.772C211.359 324.825 210.967 324.99 210.64 325.25C208.432 326.715 206.569 328.643 205.18 330.9C204.513 331.879 204.135 333.026 204.09 334.21C204.075 334.373 204.075 334.537 204.09 334.7L198.92 331.7C198.906 331.537 198.903 331.373 198.91 331.21Z" fill="#C5C5C5"/>
<path d="M200.06 340.22L205.23 343.22L204.12 334.7L198.94 331.7L200.06 340.22Z" fill="#7F7F7F"/>
<path d="M196.94 340.28C197.96 340.593 199.053 340.572 200.06 340.22L205.23 343.22C204.223 343.572 203.13 343.593 202.11 343.28C201.805 343.191 201.513 343.063 201.24 342.9L196.07 339.9C196.343 340.063 196.635 340.191 196.94 340.28Z" fill="#C5C5C5"/>
<path d="M205.47 322.25C206.88 321.37 208.16 321.66 208.58 322.98L211.12 331.12C211.27 330.81 214.02 324.85 214.05 319.32C214.05 316.38 213.26 313.65 210.79 312.18C209.71 311.54 209.13 310.18 209.14 308.37L209.42 247.49C209.49 245.474 210.072 243.509 211.11 241.78C213.172 238.518 214.328 234.766 214.46 230.91C214.46 225.37 211.77 222.51 211.63 222.36L209 233.45C208.789 234.334 208.404 235.168 207.866 235.901C207.329 236.634 206.65 237.253 205.87 237.72C205.076 238.199 204.186 238.499 203.264 238.599C202.342 238.7 201.409 238.597 200.53 238.3C200.138 238.11 199.815 237.803 199.606 237.421C199.396 237.04 199.31 236.603 199.36 236.17C199.345 235.994 199.345 235.816 199.36 235.64L200.55 225.81C199.337 226.809 198.281 227.985 197.42 229.3C195.274 232.283 194.047 235.829 193.89 239.5C193.822 240.473 193.949 241.451 194.263 242.374C194.577 243.298 195.073 244.15 195.72 244.88L199.26 248.32C199.676 248.785 199.994 249.33 200.195 249.921C200.396 250.512 200.476 251.137 200.43 251.76L200.15 314.27C200.094 315.935 199.681 317.568 198.94 319.06L195.35 326.55C194.183 328.879 193.538 331.436 193.46 334.04C193.46 337.16 194.61 339.57 196.91 340.28C197.93 340.593 199.023 340.572 200.03 340.22L198.91 331.7C198.9 331.537 198.9 331.373 198.91 331.21C198.964 330.026 199.345 328.881 200.01 327.9C201.396 325.641 203.26 323.713 205.47 322.25Z" fill="#DCDCDC"/>
<path d="M206.13 309.68L206.41 248.64L202.97 250.61L202.69 311.65L206.13 309.68Z" fill="#C5C5C5"/>
<path d="M203.71 251.04L203.44 311.22L202.69 311.65L202.97 250.61L206.41 248.64V249.5L203.71 251.04Z" fill="#7F7F7F"/>
<path d="M211.12 331.12L216.3 334.12C216.44 333.81 219.19 327.85 219.22 322.31C219.22 319.37 218.44 316.64 215.96 315.18C214.88 314.54 214.3 313.18 214.31 311.37L209.14 308.37C209.14 310.15 209.71 311.54 210.79 312.18C213.26 313.65 214.06 316.38 214.05 319.32C214 324.85 211.27 330.81 211.12 331.12Z" fill="#7F7F7F"/>
<path d="M191.78 272.72C191.205 272.264 190.753 271.67 190.467 270.994C190.18 270.318 190.068 269.581 190.14 268.85C190.69 263.03 196.91 258.43 198.14 257.57C198.611 257.184 199.158 256.899 199.744 256.734C200.331 256.569 200.946 256.528 201.549 256.613C202.153 256.698 202.732 256.907 203.251 257.226C203.77 257.546 204.217 257.97 204.564 258.472C204.91 258.973 205.149 259.541 205.265 260.139C205.382 260.737 205.373 261.353 205.239 261.948C205.105 262.543 204.85 263.103 204.488 263.594C204.127 264.085 203.668 264.495 203.14 264.8C200.84 266.42 198.58 269.1 198.88 269.94C199.035 270.237 199.096 270.574 199.055 270.906C199.014 271.238 198.872 271.55 198.65 271.8C196.15 274.2 193.45 274.05 191.78 272.72Z" fill="#263238"/>
<path d="M212.26 260.76C213.983 260.76 215.38 259.363 215.38 257.64C215.38 255.917 213.983 254.52 212.26 254.52C210.537 254.52 209.14 255.917 209.14 257.64C209.14 259.363 210.537 260.76 212.26 260.76Z" fill="#263238"/>
<path d="M154 449L1.57001 360.84C-0.749988 359.5 -0.429988 357.16 2.22001 355.61L16 347.66C18.68 346.11 22.73 345.95 25 347.29L177.44 435.46C179.75 436.8 179.44 439.14 176.79 440.69L163.01 448.64C160.37 450.19 156.32 450.36 154 449Z" fill="#F1F1F1"/>
<path d="M315.637 364.969C315.657 365.357 315.792 365.729 316.027 366.039C316.342 366.464 316.812 366.746 317.335 366.825C317.858 366.903 318.39 366.772 318.817 366.459C319.017 366.309 323.817 362.719 324.817 357.629C324.888 357.366 324.904 357.091 324.865 356.821C324.826 356.551 324.732 356.292 324.589 356.06C324.446 355.828 324.257 355.628 324.034 355.471C323.811 355.314 323.558 355.205 323.291 355.15C323.024 355.095 322.749 355.094 322.482 355.149C322.215 355.204 321.962 355.313 321.739 355.47C321.515 355.626 321.326 355.826 321.183 356.058C321.04 356.29 320.946 356.549 320.907 356.819C320.177 360.379 316.447 363.219 316.407 363.249C316.147 363.45 315.941 363.713 315.806 364.013C315.672 364.313 315.614 364.641 315.637 364.969Z" fill="#263238"/>
<path d="M168.7 434.32V436.48C168.7 438.4 167.43 440.31 164.91 441.78C159.84 444.78 151.58 444.78 146.47 441.78C143.9 440.3 142.61 438.35 142.62 436.41V434.25C142.62 436.2 143.9 438.14 146.47 439.63C151.58 442.58 159.84 442.58 164.91 439.63C167.43 438.16 168.69 436.24 168.7 434.32Z" fill="#424242"/>
<path d="M164.84 428.94C169.96 431.89 169.99 436.67 164.91 439.62C159.83 442.57 151.58 442.57 146.47 439.62C141.36 436.67 141.33 431.89 146.41 428.94C151.49 425.99 159.73 426 164.84 428.94Z" fill="#727272"/>
<path d="M159.45 432C161.56 433.22 161.57 435.19 159.45 436.4C158.274 437.001 156.971 437.315 155.65 437.315C154.329 437.315 153.027 437.001 151.85 436.4C149.74 435.19 149.73 433.21 151.85 432C153.027 431.4 154.329 431.088 155.65 431.088C156.971 431.088 158.273 431.4 159.45 432Z" fill="#2A2A2A"/>
<path d="M168.7 434.33V436.48C168.7 438.4 167.43 440.31 164.9 441.77C162.065 443.299 158.88 444.064 155.66 443.99V441.83C158.88 441.913 162.066 441.151 164.9 439.62C167.43 438.16 168.7 436.24 168.7 434.33Z" fill="#2A2A2A"/>
<path d="M160.46 331.62V434.07C160.419 434.488 160.267 434.888 160.022 435.229C159.776 435.569 159.444 435.839 159.06 436.01C158.011 436.547 156.849 436.827 155.67 436.827C154.491 436.827 153.329 436.547 152.28 436.01C151.885 435.836 151.544 435.558 151.294 435.206C151.044 434.854 150.894 434.441 150.86 434.01V331.59C150.897 332.02 151.048 332.432 151.298 332.783C151.548 333.135 151.887 333.413 152.28 333.59C153.331 334.122 154.492 334.4 155.67 334.4C156.848 334.4 158.009 334.122 159.06 333.59C159.447 333.415 159.78 333.14 160.026 332.794C160.272 332.448 160.422 332.043 160.46 331.62Z" fill="#424242"/>
<path d="M160.45 331.62V434.06C160.414 434.48 160.267 434.882 160.022 435.225C159.778 435.568 159.445 435.839 159.06 436.01C158.016 436.572 156.845 436.855 155.66 436.83V334.38C156.845 334.413 158.017 334.133 159.06 333.57C159.445 333.399 159.776 333.127 160.021 332.784C160.265 332.442 160.413 332.04 160.45 331.62Z" fill="#2A2A2A"/>
<path d="M159 329.64C160.88 330.72 160.89 332.48 159 333.57C157.949 334.102 156.788 334.38 155.61 334.38C154.432 334.38 153.271 334.102 152.22 333.57C150.34 332.48 150.33 330.72 152.22 329.64C153.27 329.105 154.432 328.825 155.61 328.825C156.789 328.825 157.95 329.105 159 329.64Z" fill="#727272"/>
<path d="M159.16 325.7V331C159.134 331.304 159.028 331.596 158.852 331.846C158.677 332.095 158.438 332.293 158.16 332.42C157.388 332.821 156.53 333.03 155.66 333.03C154.79 333.03 153.932 332.821 153.16 332.42C152.882 332.288 152.643 332.086 152.468 331.833C152.293 331.581 152.186 331.287 152.16 330.98V325.73C152.186 326.037 152.293 326.331 152.468 326.583C152.643 326.836 152.882 327.038 153.16 327.17C153.933 327.568 154.79 327.776 155.66 327.776C156.53 327.776 157.387 327.568 158.16 327.17C158.443 327.037 158.685 326.83 158.861 326.571C159.036 326.313 159.14 326.012 159.16 325.7Z" fill="#424242"/>
<path d="M158.13 324.25C159.5 325.05 159.51 326.33 158.13 327.13C157.357 327.528 156.5 327.736 155.63 327.736C154.76 327.736 153.903 327.528 153.13 327.13C151.75 326.34 151.75 325.06 153.13 324.26C153.903 323.863 154.76 323.655 155.629 323.653C156.498 323.651 157.355 323.856 158.13 324.25Z" fill="#727272"/>
<path d="M159.17 325.7V331C159.145 331.304 159.04 331.597 158.864 331.846C158.688 332.096 158.448 332.294 158.17 332.42C157.41 332.835 156.555 333.042 155.69 333.02V327.77C156.553 327.785 157.406 327.582 158.17 327.18C158.455 327.047 158.698 326.839 158.874 326.578C159.05 326.318 159.153 326.014 159.17 325.7Z" fill="#2A2A2A"/>
<path d="M34.8 357V359.16C34.8 361.08 33.54 362.99 31.02 364.46C25.94 367.41 17.69 367.41 12.57 364.46C10 362.92 8.72003 361 8.72003 359V356.84C8.72003 358.79 10 360.73 12.57 362.22C17.69 365.17 25.94 365.17 31.02 362.22C33.54 360.79 34.8 358.87 34.8 357Z" fill="#424242"/>
<path d="M31 351.57C36.12 354.57 36.14 359.31 31.07 362.25C26 365.19 17.74 365.2 12.62 362.25C7.50003 359.3 7.49003 354.52 12.56 351.57C17.63 348.62 25.84 348.62 31 351.57Z" fill="#727272"/>
<path d="M25.55 354.67C27.66 355.89 27.67 357.86 25.55 359.08C24.3711 359.679 23.0674 359.991 21.745 359.991C20.4226 359.991 19.1189 359.679 17.94 359.08C15.84 357.87 15.83 355.9 17.94 354.68C19.117 354.076 20.4207 353.759 21.7438 353.758C23.0669 353.756 24.3715 354.069 25.55 354.67Z" fill="#2A2A2A"/>
<path d="M34.8 357V359.15C34.8 361.07 33.53 362.98 31.01 364.44C28.1709 365.968 24.9836 366.733 21.76 366.66V364.5C24.9834 364.568 28.1685 363.792 31 362.25C33.53 360.79 34.8 358.88 34.8 357Z" fill="#2A2A2A"/>
<path d="M26.56 254.25V356.7C26.5213 357.119 26.3723 357.52 26.1281 357.863C25.884 358.205 25.5534 358.477 25.17 358.65C24.1183 359.185 22.955 359.464 21.775 359.464C20.5951 359.464 19.4318 359.185 18.38 358.65C17.9859 358.476 17.6466 358.197 17.3983 357.845C17.15 357.493 17.002 357.08 16.97 356.65V254.22C17.003 254.65 17.1515 255.062 17.3997 255.414C17.6479 255.766 17.9866 256.045 18.38 256.22C19.4325 256.753 20.5955 257.03 21.775 257.03C22.9546 257.03 24.1176 256.753 25.17 256.22C25.5574 256.047 25.891 255.773 26.1356 255.426C26.3802 255.079 26.5268 254.673 26.56 254.25Z" fill="#424242"/>
<path d="M26.56 254.25V356.69C26.5245 357.111 26.3756 357.515 26.1291 357.858C25.8826 358.202 25.5477 358.472 25.16 358.64C24.1167 359.203 22.9452 359.485 21.76 359.46V257C22.9449 257.034 24.1176 256.754 25.16 256.19C25.5451 256.021 25.8779 255.752 26.1241 255.411C26.3702 255.069 26.5207 254.669 26.56 254.25Z" fill="#2A2A2A"/>
<path d="M25.14 252.27C27.03 253.36 27.04 255.11 25.14 256.2C24.0875 256.733 22.9246 257.01 21.745 257.01C20.5655 257.01 19.4025 256.733 18.35 256.2C16.47 255.11 16.46 253.35 18.35 252.27C19.4006 251.731 20.5644 251.45 21.745 251.45C22.9257 251.45 24.0894 251.731 25.14 252.27Z" fill="#727272"/>
<path d="M25.27 248.33V253.58C25.2439 253.885 25.1378 254.178 24.9622 254.429C24.7866 254.681 24.5478 254.881 24.27 255.01C23.4968 255.408 22.6397 255.616 21.77 255.616C20.9003 255.616 20.0431 255.408 19.27 255.01C18.9907 254.88 18.751 254.678 18.5753 254.425C18.3997 254.172 18.2943 253.877 18.27 253.57V248.32C18.2946 248.628 18.4 248.925 18.5755 249.179C18.7511 249.434 18.9906 249.637 19.27 249.77C20.0439 250.166 20.9007 250.372 21.77 250.372C22.6392 250.372 23.4961 250.166 24.27 249.77C24.5492 249.64 24.7889 249.438 24.9646 249.185C25.1403 248.932 25.2456 248.637 25.27 248.33Z" fill="#424242"/>
<path d="M24.23 246.88C25.61 247.68 25.62 248.96 24.23 249.76C23.4561 250.156 22.5992 250.362 21.73 250.362C20.8607 250.362 20.0039 250.156 19.23 249.76C17.86 248.96 17.85 247.68 19.23 246.88C20.0034 246.483 20.8604 246.275 21.73 246.275C22.5995 246.275 23.4566 246.483 24.23 246.88Z" fill="#727272"/>
<path d="M25.27 248.33V253.59C25.2426 253.892 25.1357 254.182 24.96 254.43C24.7844 254.677 24.5463 254.874 24.27 255C23.5072 255.415 22.6483 255.622 21.78 255.6V250.35C22.6464 250.366 23.5029 250.163 24.27 249.76C24.5479 249.631 24.7866 249.431 24.9622 249.179C25.1378 248.928 25.244 248.635 25.27 248.33Z" fill="#2A2A2A"/>
<path d="M164.28 353.57L164.21 380.35C164.255 380.809 164.178 381.272 163.986 381.691C163.795 382.111 163.496 382.473 163.12 382.74L169.01 379.32C169.388 379.053 169.689 378.689 169.88 378.268C170.072 377.846 170.148 377.381 170.1 376.92L170.18 350.14L164.28 353.57Z" fill="#D7D7D7"/>
<path d="M166.44 343.68L11.23 254.06C10.8475 253.785 10.3989 253.616 9.93001 253.57C9.46107 253.525 8.98839 253.604 8.55998 253.8L2.66998 257.23C3.09589 257.031 3.5676 256.95 4.03563 256.995C4.50366 257.041 4.95075 257.212 5.32998 257.49L160.55 347.1C161.638 347.807 162.544 348.762 163.192 349.887C163.84 351.012 164.213 352.274 164.28 353.57L170.18 350.14C170.109 348.845 169.733 347.585 169.083 346.462C168.434 345.34 167.528 344.386 166.44 343.68Z" fill="#F1F1F1"/>
<path d="M160.55 347.1C161.638 347.807 162.544 348.762 163.192 349.887C163.841 351.012 164.213 352.274 164.28 353.57L164.21 380.35C164.21 382.72 162.52 383.67 160.45 382.48L5.23 292.87C4.14345 292.163 3.23926 291.209 2.59108 290.087C1.94289 288.964 1.56905 287.704 1.5 286.41L1.58 259.63C1.58 257.25 3.27 256.29 5.33 257.49L160.55 347.1Z" fill="#E4E4E4"/>
<path d="M28.68 270.96L1.5 285.53L1.55 269.23L14.05 262.53L28.68 270.96Z" fill="#DC3F46"/>
<path d="M55.11 286.23L23.28 303.29L8.67999 294.86L40.51 277.8L55.11 286.23Z" fill="#DC3F46"/>
<path d="M81.56 301.5L49.72 318.55L35.13 310.12L66.96 293.06L81.56 301.5Z" fill="#DC3F46"/>
<path d="M108 316.76L76.17 333.83L61.56 325.39L93.39 308.33L108 316.76Z" fill="#DC3F46"/>
<path d="M134.45 332.03L102.62 349.1L88.01 340.65L119.84 323.6L134.45 332.03Z" fill="#DC3F46"/>
<path d="M160.87 347.31L129.06 364.36L114.45 355.93L146.29 338.87L160.55 347.1C160.663 347.161 160.77 347.231 160.87 347.31Z" fill="#DC3F46"/>
<path d="M164.26 358.68L164.22 374.95L155.5 379.63L140.91 371.2L164.26 358.68Z" fill="#DC3F46"/>
<path d="M34.64 267.57L28.7 270.98L14.05 262.53L19.97 259.12L34.64 267.57Z" fill="#E6979A"/>
<path d="M61.07 282.84L55.15 286.24L40.49 277.79L46.4 274.37L61.07 282.84Z" fill="#E6979A"/>
<path d="M87.5 298.1L81.58 301.51L66.92 293.05L72.84 289.63L87.5 298.1Z" fill="#E6979A"/>
<path d="M113.94 313.37L108.02 316.77L93.36 308.32L99.28 304.9L113.94 313.37Z" fill="#E6979A"/>
<path d="M140.38 328.62L134.44 332.03L119.79 323.57L125.71 320.15L140.38 328.62Z" fill="#E6979A"/>
<path d="M166.8 343.9L160.86 347.31C160.761 347.233 160.658 347.163 160.55 347.1L146.24 338.84L152.15 335.42L166.44 343.67L166.8 343.9Z" fill="#E6979A"/>
<path d="M170.17 355.3L170.11 371.61L164.22 375.01L164.26 358.7L170.17 355.3Z" fill="#AD000F"/>
<g style="mix-blend-mode:multiply">
<g style="mix-blend-mode:multiply">
<path d="M127.67 363.57L57.42 323.02L75.29 297.9L110 317.94L127.67 363.57Z" fill="#DABFC0"/>
</g>
</g>
<g style="mix-blend-mode:multiply">
<path d="M115.92 314.53L110 317.94L87.9 305.19L93.82 301.77L115.92 314.53Z" fill="#DABFC0"/>
</g>
<path d="M119.9 365.43L112.9 369.51C113.55 369.13 113.78 368.03 113.25 366.68L120.25 362.59C120.78 364 120.56 365.05 119.9 365.43Z" fill="#E9A727"/>
<path d="M75.51 275.63L82.51 271.55C82.7602 271.44 83.0345 271.398 83.3061 271.426C83.5778 271.454 83.8375 271.552 84.06 271.71L77.06 275.79C76.8375 275.632 76.5778 275.534 76.3061 275.506C76.0345 275.478 75.7602 275.52 75.51 275.63Z" fill="#E9A727"/>
<path d="M78.94 278.13L85.96 274.05L120.25 362.59L113.23 366.68L78.94 278.13Z" fill="#E9A727"/>
<path d="M77.06 275.79L84.06 271.71C84.9495 272.252 85.6324 273.076 86 274.05L79 278.13C78.6258 277.159 77.9445 276.338 77.06 275.79Z" fill="#E9A727"/>
<path d="M77.06 275.79C77.9222 276.347 78.5815 277.168 78.94 278.13L113.23 366.68C114.07 368.83 113.01 370.32 111.33 369.35L42.33 329.53C40.65 328.53 39.61 325.87 40.45 324.68L75.16 276C75.59 275.36 76.32 275.37 77.06 275.79Z" fill="#F8E837"/>
<path d="M77 280.14C77.7852 280.642 78.3854 281.386 78.71 282.26L109.81 362.58C110.57 364.58 109.61 365.88 108.09 365.01L45.57 328.89C44.04 328 43.1 325.56 43.86 324.48L75.32 280.28C75.7 279.75 76.37 279.75 77 280.14Z" fill="#DC3F46"/>
<path d="M77 283.59C77.7342 284.06 78.2876 284.765 78.57 285.59L107.14 359.36C107.84 361.16 106.96 362.36 105.56 361.59L48.12 328.37C46.71 327.56 45.85 325.32 46.55 324.32L75.44 283.73C75.6316 283.51 75.901 283.372 76.1918 283.346C76.4826 283.32 76.7723 283.407 77 283.59Z" fill="#F8E837"/>
<path d="M77.44 329.42L75.2 328.13C74.8087 327.851 74.4882 327.484 74.2642 327.058C74.0402 326.633 73.9189 326.161 73.91 325.68V296C73.91 295.05 74.49 294.62 75.2 295L77.44 296.29C77.8301 296.57 78.1491 296.937 78.3714 297.363C78.5937 297.788 78.7131 298.26 78.72 298.74V328.4C78.72 329.4 78.15 329.83 77.44 329.42Z" fill="black"/>
<path d="M79.19 338C79.19 339.81 77.9 340.55 76.32 339.63C75.4849 339.09 74.7895 338.36 74.2906 337.5C73.7918 336.639 73.5037 335.673 73.45 334.68C73.45 332.87 74.73 332.13 76.32 333.05C77.1535 333.592 77.8476 334.322 78.3462 335.182C78.8448 336.042 79.1339 337.008 79.19 338Z" fill="black"/>
<path d="M28.7085 153.449L39.2643 151.409L53.5579 172.057L53.8309 172.004L49.4561 149.439L56.2354 148.129L62.3567 179.702L52.8474 181.54L37.2705 159.629L36.9975 159.682L41.6546 183.703L34.8298 185.022L28.7085 153.449ZM80.0434 176.755C78.1325 177.125 76.3804 177.259 74.7874 177.157C73.2246 177.05 71.8335 176.611 70.614 175.84C69.4249 175.063 68.3986 173.908 67.535 172.376C66.6715 170.844 65.9987 168.834 65.5165 166.347C65.0343 163.86 64.9075 161.745 65.1359 160.002C65.3644 158.259 65.885 156.805 66.6978 155.641C67.541 154.471 68.6675 153.545 70.0773 152.864C71.5175 152.176 73.1931 151.648 75.1041 151.279C77.015 150.909 78.7519 150.778 80.3146 150.885C81.8774 150.992 83.2533 151.434 84.4425 152.211C85.6619 152.982 86.7034 154.134 87.567 155.666C88.4305 157.199 89.1033 159.208 89.5855 161.695C90.0677 164.182 90.1945 166.297 89.9661 168.041C89.7376 169.784 89.2018 171.241 88.3587 172.411C87.5458 173.575 86.4345 174.497 85.0246 175.179C83.6148 175.86 81.9544 176.386 80.0434 176.755ZM79.0732 171.751C80.0742 171.557 80.8848 171.275 81.5051 170.903C82.1557 170.526 82.6223 170.011 82.9049 169.358C83.2119 168.67 83.3443 167.81 83.3019 166.78C83.2899 165.744 83.1398 164.483 82.8516 162.997C82.5635 161.511 82.2314 160.285 81.8554 159.319C81.4793 158.353 81.0202 157.608 80.4779 157.084C79.966 156.553 79.3529 156.231 78.6385 156.118C77.9183 155.974 77.0576 155.998 76.0567 156.192C75.0557 156.385 74.2328 156.686 73.5881 157.094C72.9678 157.465 72.5042 157.996 72.1971 158.684C71.9204 159.367 71.788 160.226 71.8001 161.263C71.8425 162.293 72.0077 163.551 72.2959 165.037C72.584 166.523 72.9161 167.749 73.2921 168.715C73.6682 169.68 74.1121 170.428 74.6241 170.959C75.1604 171.453 75.7858 171.757 76.5002 171.871C77.2145 171.984 78.0722 171.944 79.0732 171.751ZM100.683 152.187L102.808 163.152C102.949 163.879 103.094 164.465 103.243 164.908C103.423 165.346 103.645 165.68 103.91 165.912C104.169 166.114 104.493 166.24 104.88 166.291C105.262 166.312 105.741 166.266 106.317 166.155C107.106 166.002 107.746 165.816 108.238 165.595L109.226 170.69C108.753 170.844 108.246 170.99 107.706 171.125C107.172 171.292 106.631 171.428 106.085 171.533C104.569 171.826 103.256 171.954 102.148 171.917C101.069 171.873 100.153 171.61 99.3981 171.126C98.6435 170.643 98.0116 169.9 97.5025 168.897C97.0237 167.888 96.6285 166.58 96.3168 164.973L94.0853 153.463L90.8549 154.087L89.8494 148.901L93.0798 148.276L91.9508 142.453L98.5482 141.178L99.6772 147.001L104.773 146.016L105.779 151.203L100.683 152.187ZM127.476 140.59L128.896 147.914L140.362 145.698L141.517 151.658L130.051 153.874L132.433 166.158L125.517 167.494L119.396 135.921L138.687 132.193L139.851 138.198L127.476 140.59ZM160.733 161.16C158.822 161.529 157.07 161.663 155.477 161.562C153.914 161.455 152.523 161.016 151.304 160.245C150.115 159.468 149.088 158.313 148.225 156.781C147.361 155.248 146.688 153.239 146.206 150.752C145.724 148.265 145.597 146.15 145.826 144.406C146.054 142.663 146.575 141.209 147.388 140.045C148.231 138.875 149.357 137.95 150.767 137.268C152.207 136.581 153.883 136.052 155.794 135.683C157.705 135.314 159.442 135.183 161.004 135.29C162.567 135.397 163.943 135.839 165.132 136.616C166.352 137.387 167.393 138.539 168.257 140.071C169.12 141.603 169.793 143.613 170.275 146.1C170.757 148.587 170.884 150.702 170.656 152.445C170.427 154.189 169.892 155.645 169.048 156.815C168.236 157.979 167.124 158.902 165.714 159.583C164.305 160.265 162.644 160.79 160.733 161.16ZM159.763 156.155C160.764 155.962 161.575 155.679 162.195 155.308C162.845 154.93 163.312 154.415 163.595 153.763C163.902 153.074 164.034 152.215 163.992 151.185C163.98 150.149 163.829 148.887 163.541 147.401C163.253 145.915 162.921 144.689 162.545 143.724C162.169 142.758 161.71 142.013 161.168 141.488C160.656 140.958 160.043 140.636 159.328 140.522C158.608 140.378 157.747 140.403 156.746 140.596C155.745 140.79 154.923 141.091 154.278 141.498C153.658 141.87 153.194 142.4 152.887 143.089C152.61 143.772 152.478 144.631 152.49 145.667C152.532 146.697 152.697 147.955 152.986 149.441C153.274 150.928 153.606 152.154 153.982 153.119C154.358 154.085 154.802 154.833 155.314 155.363C155.85 155.858 156.476 156.161 157.19 156.275C157.904 156.389 158.762 156.349 159.763 156.155ZM195.336 128.512L200.099 153.079L194.139 154.231L193.065 151.371C192.596 152.689 191.778 153.743 190.61 154.536C189.472 155.322 187.993 155.891 186.173 156.243C184.657 156.536 183.335 156.618 182.209 156.49C181.107 156.325 180.155 155.958 179.352 155.39C178.58 154.815 177.945 154.057 177.448 153.115C176.975 152.136 176.609 150.98 176.351 149.645L173.087 132.813L179.684 131.538L182.604 146.596C182.916 148.204 183.4 149.321 184.057 149.95C184.744 150.572 185.891 150.728 187.499 150.417C188.773 150.171 189.787 149.723 190.542 149.074C191.322 148.388 191.786 147.37 191.933 146.02L188.784 129.779L195.336 128.512ZM216.171 124.014C217.688 123.72 218.997 123.656 220.099 123.821C221.225 123.949 222.174 124.301 222.947 124.875C223.719 125.45 224.341 126.226 224.814 127.204C225.281 128.153 225.647 129.309 225.912 130.674L229.166 147.461L222.569 148.736L219.65 133.678C219.491 132.859 219.295 132.173 219.062 131.62C218.823 131.037 218.517 130.593 218.143 130.287C217.799 129.976 217.355 129.795 216.81 129.743C216.259 129.66 215.574 129.698 214.755 129.857C213.39 130.121 212.315 130.58 211.529 131.235C210.743 131.891 210.292 132.89 210.175 134.235L213.333 150.521L206.735 151.797L201.973 127.23L208.57 125.955L209.143 128.912C209.587 127.63 210.423 126.588 211.652 125.784C212.875 124.949 214.381 124.359 216.171 124.014ZM251.48 107.277L258.183 141.853L252.223 143.005L251.061 139.69C250.793 140.906 250.153 141.989 249.142 142.94C248.161 143.884 246.548 144.574 244.303 145.008C242.301 145.394 240.607 145.423 239.222 145.093C237.83 144.733 236.664 144.077 235.725 143.126C234.779 142.144 234.017 140.891 233.438 139.367C232.86 137.842 232.382 136.11 232.006 134.169C231.665 132.41 231.481 130.73 231.454 129.131C231.427 127.531 231.666 126.085 232.17 124.792C232.675 123.498 233.499 122.395 234.644 121.482C235.789 120.568 237.362 119.918 239.364 119.531C241.608 119.097 243.341 119.108 244.563 119.564C245.809 119.984 246.78 120.693 247.477 121.692L244.928 108.544L251.48 107.277ZM245.426 139.599C246.548 139.382 247.441 139.036 248.104 138.562C248.768 138.087 249.247 137.476 249.542 136.726C249.837 135.977 249.97 135.118 249.939 134.148C249.933 133.142 249.809 132.018 249.568 130.774C249.339 129.591 249.042 128.547 248.678 127.642C248.338 126.701 247.891 125.938 247.337 125.353C246.777 124.737 246.098 124.318 245.299 124.095C244.495 123.841 243.532 123.823 242.409 124.04C241.257 124.263 240.373 124.654 239.757 125.213C239.172 125.767 238.768 126.443 238.546 127.241C238.347 128.003 238.278 128.866 238.339 129.829C238.431 130.787 238.579 131.797 238.785 132.858C239.003 133.981 239.251 135.018 239.53 135.971C239.834 136.888 240.235 137.66 240.734 138.287C241.228 138.884 241.846 139.315 242.59 139.58C243.358 139.809 244.304 139.816 245.426 139.599Z" fill="#263238"/>
<path d="M87.5616 93.1129L78.7022 94.8252L82.0467 112.076L65.8432 115.208L62.4987 97.957L26.478 104.919L23.2691 88.3676L46.663 34.9918L66.3636 31.1842L75.9226 80.4885L84.782 78.7762L87.5616 93.1129ZM59.7191 83.6202L53.5498 51.7997L52.8504 51.9349L37.9012 87.1116L38.0368 87.811L59.7191 83.6202ZM130.165 103.985C125.736 104.841 121.582 105.039 117.703 104.58C113.809 104.042 110.279 102.467 107.112 99.8549C103.929 97.1646 101.119 93.2738 98.6808 88.1825C96.2274 83.0134 94.1946 76.2717 92.5826 67.9571C90.9706 59.6426 90.3443 52.6693 90.7037 47.0373C91.063 41.4052 92.2237 36.7872 94.1856 33.1833C96.1476 29.5794 98.8419 26.8417 102.268 24.9701C105.68 23.0209 109.601 21.6182 114.03 20.762C118.46 19.9058 122.583 19.7539 126.399 20.3063C130.277 20.7659 133.8 22.302 136.967 24.9145C140.135 27.5271 142.899 31.3866 145.259 36.4929C147.698 41.5842 149.723 48.2872 151.335 56.6017C152.947 64.9162 153.581 71.9283 153.236 77.6381C152.955 83.2552 151.84 87.9045 149.894 91.5861C147.932 95.19 145.245 97.9666 141.833 99.9158C138.484 101.772 134.595 103.129 130.165 103.985ZM127.341 89.4151C129.594 88.9795 131.423 88.2229 132.827 87.1455C134.308 86.053 135.366 84.4378 135.999 82.2999C136.618 80.0843 136.821 77.183 136.61 73.5961C136.398 70.0092 135.757 65.4572 134.688 59.9401C133.633 54.5007 132.534 50.0777 131.389 46.6711C130.245 43.2644 128.972 40.6486 127.57 38.8235C126.153 36.9207 124.553 35.7385 122.771 35.2768C121.066 34.8002 119.086 34.7797 116.833 35.2153C114.579 35.6509 112.711 36.4149 111.23 37.5074C109.826 38.5849 108.823 40.2703 108.219 42.5636C107.601 44.7792 107.397 47.6804 107.609 51.2673C107.82 54.8542 108.454 59.3673 109.508 64.8068C110.578 70.3239 111.685 74.7857 112.829 78.1924C113.973 81.599 115.246 84.2149 116.648 86.04C118.035 87.7873 119.581 88.8994 121.286 89.376C123.069 89.8376 125.087 89.8506 127.341 89.4151ZM225.08 66.5337L216.22 68.2461L219.565 85.4967L203.361 88.6285L200.017 71.3778L163.996 78.3398L160.787 61.7885L184.181 8.4127L203.882 4.60502L213.441 53.9093L222.3 52.197L225.08 66.5337ZM197.237 57.0411L191.068 25.2206L190.369 25.3558L175.419 60.5325L175.555 61.2318L197.237 57.0411Z" fill="#263238"/>
<path d="M342.83 50.5L334.65 36.3L342.83 22.1H351.6L346.65 36.3L351.6 50.5H342.83Z" fill="#E8505B"/>
<path d="M351 43.7C351.993 43.7366 352.983 43.5726 353.91 43.2179C354.838 42.8632 355.685 42.3251 356.4 41.6358C357.116 40.9464 357.684 40.1199 358.073 39.2057C358.462 38.2915 358.662 37.3084 358.662 36.315C358.662 35.3217 358.462 34.3385 358.073 33.4243C357.684 32.5101 357.116 31.6836 356.4 30.9943C355.685 30.3049 354.838 29.7668 353.91 29.4121C352.983 29.0575 351.993 28.8935 351 28.93L365 26.14L368.69 37.39L362.48 46.87L351 43.7Z" fill="#E8505B"/>
<path d="M349.84 22.1H366.24L374.43 36.3L366.24 50.5H349.84L341.65 36.3L349.84 22.1ZM358 43.7C359.462 43.702 360.891 43.2705 362.107 42.4601C363.324 41.6497 364.272 40.4969 364.834 39.1473C365.395 37.7977 365.543 36.312 365.26 34.8781C364.977 33.4442 364.275 32.1265 363.243 31.0916C362.211 30.0567 360.895 29.3511 359.462 29.064C358.028 28.7769 356.542 28.9212 355.191 29.4787C353.84 30.0362 352.685 30.9819 351.871 32.196C351.057 33.4102 350.622 34.8384 350.62 36.3C350.625 38.2575 351.404 40.1337 352.786 41.5198C354.168 42.9058 356.043 43.6895 358 43.7Z" fill="#263238"/>
</g>
<defs>
<clipPath id="clip0_7191_198336">
<rect width="432.35" height="449.92" fill="white"/>
</clipPath>
</defs>
</svg>
