<svg width="24" height="24" viewBox="0 0 24 24" fill="none" xmlns="http://www.w3.org/2000/svg">
<path fill-rule="evenodd" clip-rule="evenodd" d="M22.5 21.4425L16.8375 15.75C19.6495 12.3571 19.2986 7.3533 16.0406 4.38607C12.7826 1.41884 7.76789 1.53588 4.65189 4.65189C1.53588 7.76789 1.41883 12.7826 4.38607 16.0406C7.3533 19.2986 12.3571 19.6495 15.75 16.8375L21.4425 22.5L22.5 21.4425ZM3.74999 10.5C3.74999 6.77208 6.77207 3.75 10.5 3.75C14.2279 3.75 17.25 6.77208 17.25 10.5C17.25 14.2279 14.2279 17.25 10.5 17.25C6.77207 17.25 3.74999 14.2279 3.74999 10.5Z" fill="white"/>
</svg>
