<svg width="20" height="20" viewBox="0 0 20 20" fill="none" xmlns="http://www.w3.org/2000/svg">
<g id="Icon">
<path id="Union" fill-rule="evenodd" clip-rule="evenodd" d="M19 5H1V17.1667L19 17.1667V5ZM1 4C0.447715 4 0 4.44772 0 5V17.1667C0 17.719 0.447715 18.1667 1 18.1667H19C19.5523 18.1667 20 17.719 20 17.1667V5C20 4.44772 19.5523 4 19 4H1ZM5.90754 11.0959C7.03263 11.0959 7.94471 10.179 7.94471 9.04795C7.94471 7.9169 7.03263 7 5.90754 7C4.78244 7 3.87036 7.9169 3.87036 9.04795C3.87036 10.179 4.78244 11.0959 5.90754 11.0959ZM3.48897 12.3104C2.80244 12.7608 2.38892 13.5267 2.38892 14.3478C2.38892 14.6083 2.60007 14.8194 2.86055 14.8194H8.95479C9.21526 14.8194 9.42642 14.6083 9.42642 14.3478C9.42642 13.5267 9.01289 12.7608 8.32636 12.3104L8.12248 12.1767C6.77773 11.2944 5.0376 11.2944 3.69285 12.1767L3.48897 12.3104ZM9.94446 7.5H17.5833V8.19444H9.94446V7.5ZM10.639 9.58333H17.5834V10.2778H10.639V9.58333ZM17.5833 11.6667H11.3333V12.3611H17.5833V11.6667ZM12.0278 13.75H17.5834V14.4444H12.0278V13.75Z" fill="#2C2C2C"/>
</g>
</svg>
